# xmcd
#
# Track frame offsets:
#	150
#	12047
#	23985
#	37217
#	57820
#	74072
#	86590
#	98565
#	116480
#	132407
#	149160
#
# Disc length: 2171 seconds
# Revision: 5
# Processed by: cddbd v1.5.2PL0 Copyright (c) Steve Scherf et al.
# Submitted via: dBpowerAMP V12.0
#
DISCID=9e08790b
DTITLE=Danni Leigh - A Shot Of Whiskey and A Prayer
DYEAR=2001
DGENRE=Country
TTITLE0=Chain Gang
TTITLE1=Longnecks, Cigarettes
TTITLE2=Trying To Get Over You
TTITLE3=What'cha Gonna Do
TTITLE4=Shiver Of Lonesome
TTITLE5=Honey I Do
TTITLE6=Little Things
TTITLE7=Can't Build A Better Love
TTITLE8=I Don't Feel That Way Anymore
TTITLE9=Back In Your Arms Again
TTITLE10=Cruel Heart
EXTD=
EXTT0=
EXTT1=
EXTT2=
EXTT3=
EXTT4=
EXTT5=
EXTT6=
EXTT7=
EXTT8=
EXTT9=
EXTT10=
PLAYORDER=
